<?xml version="1.0" encoding="UTF-8"?>
<svg width="40" height="40" fill="none" version="1.1" viewBox="0 0 40 40" xml:space="preserve" xmlns="http://www.w3.org/2000/svg"><g fill="#37abc8" stroke-width="25"><path d="m19.887 1.7793a0.5549 0.5549 0 0 1 0.59444-0.01977 1.5896 1.5896 0 0 1 0.56941 0.72889 5.7744 5.7744 0 0 1 0.42837 1.7781 8.2603 8.2603 0 0 1-0.22275 2.8997 13.216 13.216 0 0 1 6.0011 2.1089 7.7766 7.7766 0 0 1 1.2456-2.2407 6.042 6.042 0 0 1 1.6911-1.5514 1.2324 1.2324 0 0 1 0.97932-0.18453 0.75789 0.75789 0 0 1 0.38092 0.75525 4.2547 4.2547 0 0 1-0.48505 1.7135 8.1048 8.1048 0 0 1-2.1919 2.7679 13.36 13.36 0 0 1 2.4055 2.9103l-1.8044 1.0966a11.099 11.099 0 0 0-18.807-0.26361l-1.7728-1.1454a13.386 13.386 0 0 1 2.4147-2.7798 8.3473 8.3473 0 0 1-1.8875-2.4345 4.5948 4.5948 0 0 1-0.56281-1.8189 0.84224 0.84224 0 0 1 0.30578-0.7737 0.9635 0.9635 0 0 1 0.85675 0.05009 4.861 4.861 0 0 1 1.4802 1.1665 8.3433 8.3433 0 0 1 1.5817 2.5043 13.227 13.227 0 0 1 6.0512-1.9244 8.3275 8.3275 0 0 1-0.2122-2.8483 5.8772 5.8772 0 0 1 0.41255-1.7517 1.6963 1.6963 0 0 1 0.54831-0.74339z"/><path d="m2.4047 15.654h2.5412q0 1.7886 0 3.5772h2.8668q0-1.7873 0-3.5759h2.5425q0 4.803 0 9.606h-2.5425q0-1.9072 0-3.8118h-2.8668q0 1.9072 0 3.8132h-2.5412z"/><path d="m12.427 15.654h6.2068v2.1274h-3.6642v1.5079h3.133q0 1.0637 0 2.1274h-3.133v1.7135h3.8118q0 1.0637 0 2.1274h-6.3544z"/><path d="m20.682 15.654h2.5412v7.4774h3.6326q0 1.0637 0 2.1274h-6.1738z"/><path d="m28.525 15.654h2.7192q0.63531 1.7227 1.2693 3.4467c0.27943 0.71702 0.46001 1.4644 0.6933 2.1959a0.51668 0.51668 0 0 0 0.10281-0.21089c0.14762-0.51536 0.30052-1.0307 0.46264-1.5434q0.68407-1.9441 1.3721-3.887h2.7205v9.606h-2.3092a43.567 43.567 0 0 1 0.10544-4.4234c0.058-0.62608 0.1608-1.2482 0.21353-1.8756a0.81324 0.81324 0 0 0-0.14631 0.2992c-0.58654 1.7557-1.2363 3.4902-1.8927 5.2208-0.45078-0.0092-0.90155 0-1.3523 0q-0.58259-1.5645-1.1638-3.1291c-0.22671-0.65903-0.44551-1.3312-0.66694-1.9969a0.98327 0.98327 0 0 0-0.17267-0.38487 34.23 34.23 0 0 1 0.31897 3.6392q0 1.3273 0 2.6546h-2.2736z"/><path d="m9.1505 27.781q0.86465-0.60367 1.7319-1.206a11.101 11.101 0 0 0 18.233-0.01582l1.7346 1.2021a13.525 13.525 0 0 1-1.8176 2.1089 8.2669 8.2669 0 0 1 1.9586 2.4938 4.6014 4.6014 0 0 1 0.56281 1.815 0.8172 0.8172 0 0 1-0.3427 0.79084 1.1467 1.1467 0 0 1-0.97931-0.14762 5.8153 5.8153 0 0 1-1.6502-1.4723 8.2352 8.2352 0 0 1-1.2508-2.13 13.137 13.137 0 0 1-6.0104 2.1511 8.0217 8.0217 0 0 1 0.1898 1.9771 6.6114 6.6114 0 0 1-0.40596 2.304 1.8189 1.8189 0 0 1-0.58786 0.83697 0.56808 0.56808 0 0 1-0.66825-0.0224 2.0733 2.0733 0 0 1-0.61554-0.97009 7.5973 7.5973 0 0 1-0.33083-2.9156 7.4589 7.4589 0 0 1 0.16344-1.1757 13.212 13.212 0 0 1-6.071-1.9692 8.4883 8.4883 0 0 1-1.7768 2.5887 3.8777 3.8777 0 0 1-1.3932 0.94373 0.69989 0.69989 0 0 1-0.8093-0.16344 1.5013 1.5013 0 0 1-0.0896-1.1388 7.1821 7.1821 0 0 1 1.3233-2.6137 7.9664 7.9664 0 0 1 0.90683-1.0004 13.738 13.738 0 0 1-2.0048-2.271z"/></g><ellipse cx="20.125" cy="20.125" rx="10.025" ry="9.8078" fill="#afe" fill-opacity=".28718" stroke="#08a" stroke-linecap="square" stroke-linejoin="round" stroke-width="3.1" style="paint-order:fill markers stroke"/><path d="m27.062 28.937 5.375 6.3125v0" fill="#00aad4" stroke="#08a" stroke-linecap="round" stroke-width="5.3" style="paint-order:stroke fill markers"/></svg>
