<?xml version="1.0" encoding="UTF-8" standalone="no"?>
<svg
   width="40"
   height="40"
   viewBox="0 0 40 40"
   fill="none"
   version="1.1"
   id="svg13"
   sodipodi:docname="pluginIcon.svg"
   inkscape:version="1.2.2 (732a01da63, 2022-12-09)"
   xmlns:inkscape="http://www.inkscape.org/namespaces/inkscape"
   xmlns:sodipodi="http://sodipodi.sourceforge.net/DTD/sodipodi-0.dtd"
   xmlns="http://www.w3.org/2000/svg"
   xmlns:svg="http://www.w3.org/2000/svg">
  <sodipodi:namedview
     id="namedview15"
     pagecolor="#ffffff"
     bordercolor="#666666"
     borderopacity="1.0"
     inkscape:showpageshadow="2"
     inkscape:pageopacity="0.0"
     inkscape:pagecheckerboard="0"
     inkscape:deskcolor="#d1d1d1"
     showgrid="false"
     inkscape:zoom="4.17193"
     inkscape:cx="101.99116"
     inkscape:cy="22.771235"
     inkscape:window-width="1920"
     inkscape:window-height="1009"
     inkscape:window-x="-8"
     inkscape:window-y="-8"
     inkscape:window-maximized="1"
     inkscape:current-layer="svg13" />
  <defs
     id="defs11">
    <linearGradient
       id="paint0_linear"
       x1="2.94192"
       y1="4.89955"
       x2="37.7772"
       y2="39.7345"
       gradientUnits="userSpaceOnUse">
      <stop
         offset="0.15937"
         stop-color="#3BEA62"
         id="stop4" />
      <stop
         offset="0.5404"
         stop-color="#3C99CC"
         id="stop6" />
      <stop
         offset="0.93739"
         stop-color="#6B57FF"
         id="stop8" />
    </linearGradient>
  </defs>
  <path
     d="m 19.887429,1.7792595 a 0.55490384,0.55490384 0 0 1 0.59444,-0.01977 1.589582,1.589582 0 0 1 0.56941,0.728888 5.7744269,5.7744269 0 0 1 0.42837,1.778065 8.2602907,8.2602907 0 0 1 -0.22275,2.899735 13.216202,13.216202 0 0 1 6.00113,2.108898 7.7765621,7.7765621 0 0 1 1.24557,-2.240704 6.0419933,6.0419933 0 0 1 1.69107,-1.551358 1.2323874,1.2323874 0 0 1 0.97932,-0.184529 0.75788529,0.75788529 0 0 1 0.38092,0.755249 4.2547021,4.2547021 0 0 1 -0.48505,1.71348 8.1047594,8.1047594 0 0 1 -2.19194,2.7679295 13.35987,13.35987 0 0 1 2.40547,2.910279 l -1.80442,1.096628 a 11.099395,11.099395 0 0 0 -18.80742,-0.263613 l -1.7728,-1.145395 a 13.386231,13.386231 0 0 1 2.41469,-2.779791 8.3472823,8.3472823 0 0 1 -1.88746,-2.4344605 4.5947619,4.5947619 0 0 1 -0.56281,-1.818925 0.8422412,0.8422412 0 0 1 0.30578,-0.773702 0.96350288,0.96350288 0 0 1 0.85675,0.05009 4.8610103,4.8610103 0 0 1 1.48018,1.166485 8.3433283,8.3433283 0 0 1 1.58167,2.504316 13.226746,13.226746 0 0 1 6.05122,-1.92437 8.3275117,8.3275117 0 0 1 -0.2122,-2.84833 5.8772356,5.8772356 0 0 1 0.41255,-1.751703 1.6963449,1.6963449 0 0 1 0.54831,-0.743387 z"
     style="fill:#277a9f;stroke-width:25"
     id="path138" />
  <path
     d="m 2.4046693,15.654492 h 2.54122 q 0,1.788609 0,3.577219 h 2.86678 q 0,-1.787292 0,-3.575901 h 2.5425397 q 0,4.803015 0,9.606031 H 7.8126693 q 0,-1.907235 0,-3.811834 h -2.86678 q 0,1.907235 0,3.813152 h -2.54122 z"
     style="fill:#277a9f;stroke-width:25"
     id="path140" />
  <path
     d="m 12.427199,15.654492 h 6.20675 v 2.127351 h -3.66421 v 1.507862 h 3.13303 q 0,1.063675 0,2.127351 h -3.13303 v 1.713479 h 3.81183 q 0,1.063676 0,2.127352 h -6.35437 z"
     style="fill:#277a9f;stroke-width:25"
     id="path142" />
  <path
     d="m 20.682219,15.654492 h 2.54122 v 7.477362 h 3.63258 q 0,1.063675 0,2.127351 h -6.1738 z"
     style="fill:#277a9f;stroke-width:25"
     id="path144" />
  <path
     d="m 28.524689,15.654492 h 2.71916 q 0.63531,1.722706 1.26929,3.446731 c 0.27943,0.717024 0.46001,1.464365 0.6933,2.195889 a 0.51668006,0.51668006 0 0 0 0.10281,-0.21089 c 0.14762,-0.515362 0.30052,-1.030724 0.46264,-1.543449 q 0.68407,-1.944141 1.3721,-3.886963 h 2.72048 v 9.606031 h -2.30924 a 43.5672,43.5672 0 0 1 0.10544,-4.423414 c 0.058,-0.626079 0.1608,-1.248204 0.21353,-1.875601 a 0.81324386,0.81324386 0 0 0 -0.14631,0.2992 c -0.58654,1.755657 -1.23634,3.490226 -1.89273,5.220841 -0.45078,-0.0092 -0.90155,0 -1.35233,0 q -0.58259,-1.564539 -1.16385,-3.129078 c -0.22671,-0.659031 -0.44551,-1.331242 -0.66694,-1.996863 a 0.9832738,0.9832738 0 0 0 -0.17267,-0.384873 34.230054,34.230054 0 0 1 0.31897,3.639166 q 0,1.327288 0,2.654576 h -2.27365 z"
     style="fill:#277a9f;stroke-width:25"
     id="path146" />
  <path
     d="m 9.150499,27.780656 q 0.86465,-0.603672 1.73193,-1.206026 a 11.100713,11.100713 0 0 0 18.23275,-0.01582 l 1.73457,1.202072 a 13.524628,13.524628 0 0 1 -1.81761,2.108898 8.2668807,8.2668807 0 0 1 1.95864,2.493772 4.6013522,4.6013522 0 0 1 0.56281,1.81497 0.81719804,0.81719804 0 0 1 -0.3427,0.790838 1.1467134,1.1467134 0 0 1 -0.97931,-0.147624 5.8152867,5.8152867 0 0 1 -1.65022,-1.472274 8.2352475,8.2352475 0 0 1 -1.25084,-2.129987 13.137118,13.137118 0 0 1 -6.01036,2.151076 8.0217217,8.0217217 0 0 1 0.1898,1.977092 6.6113958,6.6113958 0 0 1 -0.40596,2.303971 1.8189247,1.8189247 0 0 1 -0.58786,0.836969 0.56808445,0.56808445 0 0 1 -0.66825,-0.0224 2.0733105,2.0733105 0 0 1 -0.61554,-0.970093 7.5973055,7.5973055 0 0 1 -0.33083,-2.915551 7.4589095,7.4589095 0 0 1 0.16344,-1.175711 13.212247,13.212247 0 0 1 -6.07099,-1.969184 8.4883151,8.4883151 0 0 1 -1.77675,2.588672 3.8777366,3.8777366 0 0 1 -1.39318,0.943732 0.69989061,0.69989061 0 0 1 -0.8093,-0.163439 1.5012719,1.5012719 0 0 1 -0.0896,-1.138805 7.1821166,7.1821166 0 0 1 1.32333,-2.613716 7.9663626,7.9663626 0 0 1 0.90683,-1.000408 13.738154,13.738154 0 0 1 -2.00478,-2.27102 z"
     style="fill:#277a9f;stroke-width:25"
     id="path148" />
</svg>
